HIERARCHY
ROOT hip
{
	OFFSET 0.000000 0.000000 0.000000 
	CHANNELS 6 Xposition Yposition Zposition Zrotation Xrotation Yrotation
	JOINT abdomen
	{
		OFFSET 0.000000 3.402643 0.000000 
		CHANNELS 3 Zrotation Xrotation Yrotation
		JOINT chest
		{
			OFFSET 0.000000 8.438565 -0.680529 
			CHANNELS 3 Zrotation Xrotation Yrotation
			JOINT neck
			{
				OFFSET 0.000000 10.207942 -0.272212 
				CHANNELS 3 Zrotation Xrotation Yrotation
				JOINT head
				{
					OFFSET 0.000000 3.130431 0.000000 
					CHANNELS 3 Zrotation Xrotation Yrotation
					End Site
					{
						OFFSET 0.000000 3.130435 0.000000 
					}
				}
			}
			JOINT lCollar
			{
				OFFSET 3.470700 6.669187 -0.816635 
				CHANNELS 3 Zrotation Xrotation Yrotation
				JOINT lShldr
				{
					OFFSET 3.198488 0.000000 0.000000 
					CHANNELS 3 Zrotation Xrotation Yrotation
					JOINT lForeArm
					{
						OFFSET 10.139888 0.000000 0.000000 
						CHANNELS 3 Zrotation Xrotation Yrotation
						JOINT lHand
						{
							OFFSET 8.370511 0.000000 0.000000 
							CHANNELS 3 Zrotation Xrotation Yrotation
							End Site
							{
								OFFSET 4.083176 0.000000 0.000000 
							}
						}
					}
				}
			}
			JOINT rCollar
			{
				OFFSET -3.470700 6.669187 -0.816635 
				CHANNELS 3 Zrotation Xrotation Yrotation
				JOINT rShldr
				{
					OFFSET -3.198488 0.000000 0.000000 
					CHANNELS 3 Zrotation Xrotation Yrotation
					JOINT rForeArm
					{
						OFFSET -10.139888 0.000000 0.000000 
						CHANNELS 3 Zrotation Xrotation Yrotation
						JOINT rHand
						{
							OFFSET -8.370511 0.000000 0.000000 
							CHANNELS 3 Zrotation Xrotation Yrotation
							End Site
							{
								OFFSET -4.083176 0.000000 0.000000 
							}
						}
					}
				}
			}
		}
	}
	JOINT lThigh
	{
		OFFSET 5.308129 -1.633274 1.361059 
		CHANNELS 3 Zrotation Xrotation Yrotation
		JOINT lShin
		{
			OFFSET -2.041588 -20.007561 0.000000 
			CHANNELS 3 Zrotation Xrotation Yrotation
			JOINT lFoot
			{
				OFFSET 0.000000 -19.190928 -1.224953 
				CHANNELS 3 Zrotation Xrotation Yrotation
				End Site
				{
					OFFSET 0.000000 -2.449906 4.627600 
				}
			}
		}
	}
	JOINT rThigh
	{
		OFFSET -5.308129 -1.633274 1.361059 
		CHANNELS 3 Zrotation Xrotation Yrotation
		JOINT rShin
		{
			OFFSET 2.041588 -20.007561 0.000000 
			CHANNELS 3 Zrotation Xrotation Yrotation
			JOINT rFoot
			{
				OFFSET 0.000000 -19.190928 -1.224953 
				CHANNELS 3 Zrotation Xrotation Yrotation
				End Site
				{
					OFFSET 0.000000 -2.449906 4.627600 
				}
			}
		}
	}
}
MOTION
Frames: 10
Frame Time: 0.033333
-0.012480 46.924263 0.373360 -0.000000 0.078115 -0.000000 -0.000000 1.855468 -0.000000 -0.000000 2.744142 -0.000000 -0.000000 2.138669 -0.000000 -0.000000 2.519530 -0.000000 -3.618388 -0.196023 2.017454 -64.532921 8.944471 22.921249 -9.387381 7.971259 -56.576862 17.851128 -10.111078 5.408477 3.918288 -0.252078 -2.679266 64.744125 7.013903 -21.555998 9.670714 8.324961 59.559937 -34.195511 0.251950 -11.446333 3.961332 -13.831529 1.190892 -4.082685 28.584085 -0.250386 -0.062406 -15.244122 0.910525 -4.875543 -13.830360 -1.124196 3.716298 28.619883 0.067967 0.505806 -15.433345 -1.726548 
-0.020361 46.088718 0.488379 -0.000000 0.351552 -0.000000 -0.000000 2.578124 -0.000000 -0.000000 2.802738 -0.000000 -0.000000 4.384764 -0.000000 -0.000000 5.996094 -0.000000 -1.363926 -0.116536 2.020911 -55.140255 1.507180 27.510321 -6.840272 10.892224 -78.090210 29.519592 -18.127739 8.715994 1.828451 -0.179234 -3.465039 57.088657 -2.831816 -23.849289 7.041724 11.514164 82.027336 -50.931572 3.531515 -5.580484 4.384306 -17.185490 1.591256 -4.770928 35.302082 -0.085927 0.273129 -18.809528 0.858609 -5.271992 -17.168842 -2.061125 4.279544 35.346581 -0.021256 0.115261 -18.927486 -1.248798 
-0.010184 46.540573 0.660650 -0.000000 0.937490 -0.000000 -0.000000 -0.791016 -0.000000 -0.000000 -5.458984 -0.000000 -0.000000 5.644526 -0.000000 -0.000000 9.638674 -0.000000 0.500152 -0.050742 2.021411 -50.818069 -3.952592 23.908060 -4.185996 10.632040 -81.580116 42.152523 -6.146836 9.370537 -0.199832 -0.053735 -4.238264 53.996269 -10.317008 -23.537674 4.099461 11.453954 87.422386 -48.031555 4.214688 -0.060938 4.003507 -15.030511 1.356516 -4.109408 29.809332 -0.362063 -0.067282 -16.124557 0.906424 -4.923504 -15.076650 -1.764891 3.656480 29.934366 0.131903 0.437770 -16.213579 -1.277691 
0.000015 47.536900 0.907926 -0.000000 0.712881 -0.000000 -0.000000 -5.546875 -0.000000 -0.000000 -13.994142 -0.000000 -0.000000 5.878899 -0.000000 -0.000000 7.138672 -0.000000 3.301139 0.048049 2.018131 -55.420357 -7.604139 16.506680 -1.979294 9.039963 -72.727119 48.588436 6.370431 -2.750327 -2.311505 0.135137 -5.025205 58.292629 -15.208372 -20.077429 2.087312 9.392410 82.650917 -39.536274 5.960463 3.305203 3.631911 -9.659445 0.863631 -3.485392 19.681463 -0.166700 -0.441310 -11.195205 0.616766 -4.555587 -9.702152 -1.239627 3.118808 19.752096 0.179306 0.785749 -11.268492 -1.288298 
-0.008068 48.138779 1.221051 -0.000000 -1.162120 -0.000000 -0.000000 -8.476560 -0.000000 -0.000000 -14.492188 -0.000000 -0.000000 5.312496 -0.000000 -0.000000 -6.328125 -0.000000 8.034558 0.214258 2.001645 -61.857449 -8.701653 14.279110 0.050793 9.122046 -67.754875 49.071236 3.885721 -0.943908 -4.572711 0.402403 -5.860129 66.167213 -17.151060 -14.434160 0.262030 8.630920 74.958641 -35.629070 6.425192 5.027056 3.458618 -5.355704 0.507424 -3.060680 16.167730 -0.362979 -0.756225 -10.030223 0.831877 -4.359735 -5.310957 -0.817066 2.842128 16.045227 0.181909 0.938535 -10.044492 -1.344784 
-0.020772 48.485703 1.500700 -0.000000 -3.242198 -0.000000 -0.000000 -10.263677 -0.000000 -0.000000 -12.304689 -0.000000 -0.000000 4.199216 -0.000000 -0.000000 -23.945314 -0.000000 12.582663 0.372154 1.972921 -66.776825 -9.544095 14.700148 1.506158 10.238127 -66.848000 48.164108 -1.009563 7.878499 -6.507653 0.683796 -6.568549 72.083656 -18.134846 -9.509638 -0.610055 10.252903 67.671684 -34.833561 5.114415 5.735223 3.299079 -0.700973 -0.027291 -2.814852 12.273045 -0.232523 -1.009933 -8.798754 0.949772 -4.175702 -0.632494 -0.114148 2.616030 12.065826 -0.018909 1.122038 -8.674036 -1.595080 
-0.012729 47.157684 1.283246 -0.000000 -3.300792 -0.000000 -0.000000 -10.244143 -0.000000 -0.000000 -11.914063 -0.000000 -0.000000 2.763668 -0.000000 -0.000000 -37.734367 -0.000000 7.936964 0.210842 2.002119 -61.909515 -11.741453 15.218464 2.742492 9.467797 -74.927261 44.936550 4.318540 13.038626 -0.900334 0.035534 -6.610516 68.284554 -20.499249 -8.824558 -2.774290 8.914735 74.987839 -31.252329 9.566904 0.696982 3.886203 -8.278096 0.500862 -4.351524 27.792706 -0.011710 -0.001906 -16.549017 1.011435 -4.783981 -8.287371 -0.476270 3.798426 27.822784 0.012621 0.515151 -16.679008 -1.865616 
-0.015027 47.727612 1.361378 -0.000000 -3.369151 -0.000000 -0.000000 -10.224607 -0.000000 -0.000000 -11.523434 -0.000000 -0.000000 1.093746 -0.000000 -0.000000 -46.669922 -0.000000 3.291380 0.047713 2.018158 -58.730816 -13.144454 16.830507 3.581775 8.962652 -77.058823 43.901138 5.428841 12.483805 4.697235 -0.611808 -6.579299 64.564232 -22.885284 -9.876071 -4.127628 8.122585 76.466637 -29.440342 10.513017 2.403556 3.675650 -5.404700 0.379531 -3.774347 22.111862 -0.114671 -0.323810 -13.736991 0.827232 -4.555410 -5.376565 -0.325845 3.402834 22.074816 0.057511 0.699190 -13.776731 -1.796050 
-0.017324 48.297546 1.439512 -0.000000 -3.427744 -0.000000 -0.000000 -10.205082 -0.000000 -0.000000 -11.132812 -0.000000 -0.000000 -0.742193 -0.000000 -0.000000 -51.513672 -0.000000 9.332608 0.259554 1.994720 -65.618210 -10.073850 15.568219 2.392766 9.790738 -70.558502 48.084236 1.435294 9.394598 -3.403137 0.325386 -6.589877 71.827393 -18.774115 -8.853440 -2.724670 9.083423 67.129021 -35.023350 4.402341 8.661963 3.428401 -1.880442 0.082161 -3.124945 15.055635 -0.194428 -0.781060 -10.146793 0.863779 -4.300789 -1.856561 0.028416 2.899151 14.925075 -0.191979 0.969847 -10.185924 -1.650101 
-0.013242 47.558395 1.335177 -0.000000 -3.496104 -0.000000 -0.000000 -10.185542 -0.000000 -0.000000 -10.742188 -0.000000 -0.000000 -2.675784 -0.000000 -0.000000 -52.998066 -0.000000 15.374065 0.467745 1.949125 -71.182587 -8.202409 13.371713 1.178444 10.434773 -67.852028 50.060417 0.354474 10.116494 -11.505289 1.253566 -6.468348 79.055130 -15.741328 -5.875376 -1.296267 9.720457 60.785561 -38.323204 0.669292 10.504996 3.748772 -6.191869 0.352132 -4.020987 24.024490 -0.048781 -0.183608 -14.737776 0.915212 -4.620634 -6.173388 -0.814554 3.449023 24.039934 0.141422 0.588356 -14.905949 -1.451463 
